<svg version="1.1" xmlns="http://www.w3.org/2000/svg" xmlns:xlink="http://www.w3.org/1999/xlink" width="98.8862" height="52.71568" viewBox="0,0,98.8862,52.71568"><defs><linearGradient x1="194.05689" y1="171.01993" x2="235.54127" y2="171.01993" gradientUnits="userSpaceOnUse" id="color-1"><stop offset="0" stop-color="#0cb300"/><stop offset="1" stop-color="#00c799"/></linearGradient><linearGradient x1="244.45873" y1="171.17048" x2="285.9431" y2="171.17048" gradientUnits="userSpaceOnUse" id="color-2"><stop offset="0" stop-color="#00c194"/><stop offset="1" stop-color="#00becc"/></linearGradient><linearGradient x1="194.27424" y1="188.82952" x2="235.75861" y2="188.82952" gradientUnits="userSpaceOnUse" id="color-3"><stop offset="0" stop-color="#10ff00"/><stop offset="1" stop-color="#00ffc4"/></linearGradient><linearGradient x1="244.24138" y1="188.98007" x2="285.72576" y2="188.98007" gradientUnits="userSpaceOnUse" id="color-4"><stop offset="0" stop-color="#00ffc3"/><stop offset="1" stop-color="#00eeff"/></linearGradient></defs><g transform="translate(-190.5569,-153.71744)"><g data-paper-data="{&quot;isPaintingLayer&quot;:true}" fill-rule="nonzero" stroke-linecap="butt" stroke-linejoin="miter" stroke-miterlimit="10" stroke-dasharray="" stroke-dashoffset="0" style="mix-blend-mode: normal"><g fill="#ffffff" stroke="#ffffff" stroke-width="7"><path d="M235.54127,157.06688c-0.34778,0.12972 0,0.92237 0,1.75974c0,1.64649 0,7.50001 0,9.90265c0,0.64455 0.18431,0.67881 0,1.04075c-0.18431,0.36193 -0.22858,0.08385 -0.65178,0.23914c-4.97878,1.827 -36.89414,13.543 -40.45614,14.96383l-0.37645,-0.15611c0,0 0,-8.82868 0,-10.04867c0,-0.27164 -0.12945,-0.35313 0,-0.49819c0.12945,-0.14506 0.24844,-0.10303 0.70573,-0.29266c4.7796,-1.98205 32.37537,-13.42572 37.59215,-15.58907c1.64874,-0.68372 3.53907,-1.45291 3.18649,-1.3214z" data-paper-data="{&quot;index&quot;:null}"/><path d="M285.63875,174.551c0,0 0.30435,0.00774 0.30435,0.18841c0,1.02325 -0.36854,10.73476 -0.36854,10.73476l-0.00792,-0.35063c-3.66908,-1.46354 -37.42171,-13.85049 -40.8306,-15.10123c-0.18183,-0.06671 -0.23556,0.00571 -0.27732,-0.10174c-0.04176,-0.10745 0,-0.22407 0,-0.6118c0,-2.30005 0,-10.35891 0,-11.55946c0,-0.29327 -0.0949,-0.34726 0,-0.53186c0.0949,-0.1846 0.08547,0.03544 0.22538,0.09346c1.75877,0.72934 35.86362,14.87225 40.69237,16.87469c0.36861,0.15286 0.26227,0.36541 0.26227,0.36541z" data-paper-data="{&quot;index&quot;:null}"/><path d="M194.27424,185.57944c0,0 0,-0.25705 0,-0.55786c0,-1.27292 0,-9.989 0,-9.989l0.37645,-0.15611c3.45586,1.37849 33.60053,12.44776 39.94078,14.7747c0.30209,0.11087 0.55014,0.20189 0.73869,0.27107c0.37138,0.13627 0.42845,0.45316 0.42845,0.84875c0,2.23562 0,9.21423 0,10.78975c0,0.61419 0.28933,0.8428 0,1.22183c-0.28933,0.37903 -0.29115,-0.12073 -0.70843,-0.29377c-2.91743,-1.20983 -35.753,-14.04994 -40.78286,-16.13577c-0.42823,-0.17758 0.00692,-0.77359 0.00692,-0.77359z" data-paper-data="{&quot;index&quot;:null}"/><path d="M244.24138,202.93312c-0.33991,-0.23519 0,-0.52966 0,-1.08263c0,-1.5731 0,-9.17598 0,-11.15093c0,-0.29949 -0.12674,-0.33721 0,-0.46956c0.12674,-0.13235 0.2435,-0.08932 0.69317,-0.25433c5.11148,-1.87572 36.86248,-13.53169 40.41475,-14.94864c0,0 0.28951,0.02293 0.37645,0.15611c0.08693,0.13318 0,0.15272 0,0.42063c0,1.74857 0,8.40407 0,9.5331c0,0.31784 0.13044,0.4019 0,0.59313c-0.13044,0.19123 -0.1972,0.08178 -0.56418,0.23396c-4.65119,1.9288 -36.5752,15.16735 -39.94184,16.56345c-0.5645,0.23409 -0.63844,0.6409 -0.97835,0.40571z" data-paper-data="{&quot;index&quot;:null}"/></g><path d="M235.54127,157.06688v12.70313c0,0 -37.24315,13.66137 -41.10792,15.20297l-0.37645,-0.15611v-10.54686z" data-paper-data="{&quot;index&quot;:null}" fill="url(#color-1)" stroke="none" stroke-width="1"/><path d="M285.9431,174.42056v10.54686l-0.37645,0.15611c-3.86478,-1.5416 -41.10792,-15.20297 -41.10792,-15.20297v-12.70312z" data-paper-data="{&quot;index&quot;:null}" fill="url(#color-2)" stroke="none" stroke-width="1"/><path d="M194.27424,185.57944v-10.54686l0.37645,-0.15611c3.86478,1.5416 41.10792,15.20297 41.10792,15.20297v12.70313z" data-paper-data="{&quot;index&quot;:null}" fill="url(#color-3)" stroke="none" stroke-width="1"/><path d="M244.24138,202.93312v-12.70312c0,0 37.24315,-13.66137 41.10792,-15.20297l0.37645,0.15611v10.54686z" data-paper-data="{&quot;index&quot;:null}" fill="url(#color-4)" stroke="none" stroke-width="1"/></g></g></svg>